# xmcd CD database file
#
# Track frame offsets:
#	150
#	17420
#	34802
#	48807
#	65866
#	81866
#	98273
#	114699
#	128474
#	142611
#	157140
#	167375
#	178846
#	193493
#	205699
#	220233
#	232214
#	247371
#	261366
#	276655
#
# Disc length: 3881 seconds
#
# Revision: 0
# Processed by: cddbd v1.5.1PL0 Copyright (c) Steve Scherf et al.
# Submitted via: Feurio! 1.67 - http://www.feurio.com
#
DISCID=280f2714
DTITLE=Various Artist - Die Große Schlager Starparade 2004 CD2
DYEAR=1900
DGENRE=Schlager
TTITLE0=Patrick Lindner - Halleluja auf das Leben
TTITLE1=Wind - So wie du
TTITLE2=Andrea Jürgens - Du hast mich belogen
TTITLE3=Oliver Thomas - Blonde Siebzehn
TTITLE4=Olaf Henning - Im Zweifel für den Angeklagten
TTITLE5=Olaf Berger - Casanova
TTITLE6=Ute Freudenberg - Licht der Nacht
TTITLE7=Bernd Clever - Immerhin...Irgendwie...Irgendwas
TTITLE8=Stefan Moll - Denn nur bei dir
TTITLE9=Gaby Baginsky - Dj. Napolitano
TTITLE10=Peter Kraus - Sugar Baby
TTITLE11=Michael Holm - Mendocino
TTITLE12=Bata Illic - Flammende Augen
TTITLE13=Chris Andrews - Pretty Belinda
TTITLE14=Cindy and Bert - Immer wieder sonntags
TTITLE15=Drafi Deutscher - Marmor, Stein und Eisen bricht
TTITLE16=Frank Schöbel - Wie ein Stern
TTITLE17=Frank Zander - Ja, wenn wir alle Englein wären
TTITLE18=Gunter Gabriel - Truck Stop, Tom Astor und ich
TTITLE19=Tony Christie - Is this teh way to Amarillo
EXTD=
EXTT0=
EXTT1=
EXTT2=
EXTT3=
EXTT4=
EXTT5=
EXTT6=
EXTT7=
EXTT8=
EXTT9=
EXTT10=
EXTT11=
EXTT12=
EXTT13=
EXTT14=
EXTT15=
EXTT16=
EXTT17=
EXTT18=
EXTT19=
PLAYORDER=
